<svg width="38" height="38" viewBox="0 0 38 38" fill="none" xmlns="http://www.w3.org/2000/svg">
<path d="M37.0245 19.3397C37.0245 14.4489 35.1031 9.80261 31.6097 6.30916C28.1162 2.81571 23.5049 0.859375 18.649 0.859375C13.7931 0.859375 9.1468 2.78077 5.68828 6.30916C2.19483 9.80261 0.273438 14.414 0.273438 19.3397C0.273438 29.5406 8.51798 37.8201 18.649 37.8201C28.78 37.8201 30.7363 34.641 34.125 29.2961L34.6839 28.3878L30.8062 25.9074L30.2472 26.8157C27.697 30.8332 23.3651 33.2087 18.649 33.2087C11.0682 33.2087 4.88479 26.9904 4.88479 19.3747C4.88479 11.7589 6.31711 12.248 8.93719 9.593C11.5573 6.97291 15.0158 5.50566 18.649 5.50566C22.2822 5.50566 25.7407 6.93798 28.3608 9.593C30.4219 11.6891 31.7494 14.2393 32.2385 17.034H23.0507L25.042 15.0428L22.9809 12.9467L20.1512 15.8113V11.7589H17.2167V15.8113L14.387 12.9467L12.3258 15.0428L15.1905 17.9074H11.173V20.8419H15.1905L12.3608 23.7065L14.4219 25.8026L17.2516 22.938V26.9904H20.1861V22.938L23.0158 25.8026L25.0769 23.7065L23.0507 21.6803H37.0595V19.3747L37.0245 19.3397Z" fill="#ECBF57"/>
</svg>
